<svg xmlns="http://www.w3.org/2000/svg" viewBox="0 0 192 548">
  <path d="M 114.0,537.5 113.0,537.5 112.0,537.5 111.5,537.0 111.0,536.5 110.0,536.5 109.0,536.5 108.0,536.5 107.5,536.0 107.0,535.5 106.0,535.5 105.0,535.5 104.0,535.5 103.0,535.5 102.5,535.0 102.0,534.5 101.5,534.0 101.0,533.5 100.5,533.0 100.0,532.5 99.5,532.0 99.5,531.0 99.0,530.5 98.5,530.0 98.5,529.0 98.5,528.0 99.0,527.5 99.5,527.0 99.5,526.0 99.5,525.0 99.5,524.0 100.0,523.5 100.5,523.0 100.5,522.0 100.5,521.0 100.5,520.0 100.5,519.0 100.5,518.0 100.5,517.0 100.5,516.0 100.5,515.0 100.5,514.0 100.5,513.0 100.5,512.0 100.5,511.0 100.5,510.0 100.5,509.0 100.5,508.0 100.5,507.0 100.5,506.0 100.5,505.0 100.5,504.0 100.5,503.0 100.5,502.0 100.5,501.0 100.5,500.0 100.5,499.0 100.5,498.0 100.5,497.0 100.5,496.0 101.0,495.5 101.5,495.0 101.5,494.0 101.5,493.0 101.5,492.0 101.5,491.0 101.5,490.0 101.5,489.0 101.5,488.0 101.5,487.0 101.5,486.0 101.5,485.0 101.5,484.0 101.5,483.0 101.5,482.0 101.5,481.0 101.5,480.0 101.5,479.0 101.5,478.0 101.5,477.0 101.5,476.0 101.5,475.0 101.5,474.0 101.5,473.0 101.5,472.0 101.5,471.0 101.5,470.0 101.5,469.0 101.5,468.0 101.5,467.0 101.5,466.0 101.0,465.5 100.5,465.0 100.5,464.0 100.5,463.0 100.5,462.0 100.5,461.0 100.5,460.0 100.5,459.0 100.5,458.0 100.0,457.5 99.5,457.0 99.5,456.0 99.5,455.0 99.5,454.0 99.5,453.0 99.5,452.0 99.5,451.0 99.5,450.0 99.5,449.0 99.5,448.0 99.5,447.0 99.5,446.0 99.5,445.0 99.0,444.5 98.5,444.0 98.5,443.0 98.5,442.0 98.5,441.0 98.5,440.0 98.5,439.0 98.5,438.0 98.5,437.0 98.5,436.0 98.5,435.0 98.0,434.5 97.5,434.0 97.5,433.0 97.5,432.0 97.5,431.0 97.5,430.0 97.5,429.0 97.5,428.0 97.5,427.0 97.5,426.0 97.5,425.0 97.5,424.0 97.5,423.0 97.5,422.0 97.5,421.0 97.5,420.0 97.5,419.0 97.5,418.0 97.5,417.0 98.0,416.5 98.5,416.0 98.5,415.0 98.5,414.0 98.5,413.0 98.5,412.0 99.0,411.5 99.5,411.0 99.5,410.0 99.5,409.0 99.5,408.0 99.5,407.0 99.5,406.0 99.5,405.0 100.0,404.5 100.5,404.0 100.5,403.0 100.5,402.0 100.5,401.0 100.5,400.0 100.5,399.0 100.5,398.0 100.0,397.5 99.5,397.0 99.5,396.0 99.5,395.0 99.5,394.0 99.5,393.0 99.5,392.0 99.5,391.0 99.5,390.0 99.5,389.0 99.5,388.0 99.5,387.0 99.0,386.5 98.5,386.0 98.5,385.0 98.5,384.0 98.5,383.0 98.5,382.0 98.5,381.0 98.5,380.0 98.5,379.0 98.5,378.0 98.5,377.0 98.5,376.0 98.5,375.0 98.5,374.0 98.5,373.0 98.5,372.0 98.5,371.0 98.5,370.0 98.5,369.0 98.5,368.0 98.5,367.0 98.5,366.0 98.5,365.0 98.5,364.0 98.5,363.0 98.5,362.0 98.5,361.0 98.5,360.0 98.5,359.0 98.5,358.0 98.5,357.0 98.5,356.0 98.5,355.0 98.5,354.0 98.5,353.0 98.5,352.0 98.5,351.0 98.5,350.0 98.5,349.0 98.5,348.0 98.5,347.0 98.5,346.0 98.5,345.0 98.5,344.0 98.5,343.0 98.5,342.0 98.5,341.0 98.5,340.0 98.5,339.0 98.5,338.0 98.5,337.0 98.5,336.0 98.5,335.0 98.5,334.0 98.5,333.0 98.5,332.0 98.5,331.0 98.5,330.0 98.5,329.0 98.5,328.0 98.5,327.0 98.5,326.0 98.5,325.0 98.5,324.0 98.5,323.0 98.5,322.0 98.5,321.0 98.5,320.0 98.5,319.0 98.0,318.5 97.5,318.0 97.5,317.0 97.5,316.0 97.5,315.0 97.5,314.0 97.5,313.0 97.5,312.0 97.5,311.0 97.5,310.0 97.5,309.0 97.5,308.0 97.5,307.0 97.5,306.0 97.5,305.0 97.5,304.0 97.5,303.0 97.5,302.0 97.5,301.0 97.5,300.0 97.5,299.0 97.5,298.0 97.0,297.5 96.5,298.0 96.5,299.0 96.5,300.0 96.5,301.0 96.5,302.0 96.5,303.0 96.5,304.0 96.5,305.0 96.5,306.0 96.5,307.0 96.5,308.0 96.5,309.0 96.5,310.0 96.5,311.0 96.5,312.0 96.5,313.0 96.5,314.0 96.5,315.0 96.5,316.0 96.5,317.0 96.5,318.0 96.5,319.0 96.5,320.0 96.5,321.0 96.5,322.0 96.5,323.0 96.5,324.0 96.5,325.0 96.0,325.5 95.5,326.0 95.5,327.0 95.5,328.0 95.5,329.0 95.5,330.0 95.5,331.0 95.5,332.0 95.5,333.0 95.5,334.0 95.5,335.0 95.5,336.0 95.5,337.0 95.5,338.0 95.5,339.0 95.5,340.0 95.5,341.0 95.5,342.0 95.5,343.0 95.5,344.0 95.5,345.0 95.5,346.0 95.5,347.0 95.5,348.0 95.5,349.0 95.5,350.0 95.5,351.0 95.5,352.0 95.5,353.0 95.5,354.0 95.5,355.0 95.5,356.0 95.5,357.0 95.5,358.0 95.5,359.0 95.5,360.0 95.5,361.0 95.5,362.0 95.5,363.0 95.5,364.0 95.5,365.0 95.5,366.0 95.5,367.0 95.5,368.0 96.0,368.5 96.5,369.0 96.5,370.0 96.5,371.0 96.5,372.0 96.5,373.0 96.5,374.0 96.5,375.0 96.5,376.0 96.5,377.0 96.5,378.0 96.5,379.0 96.5,380.0 96.5,381.0 96.5,382.0 96.5,383.0 96.0,383.5 95.5,384.0 95.5,385.0 95.5,386.0 95.5,387.0 95.5,388.0 95.0,388.5 94.5,389.0 94.5,390.0 94.5,391.0 94.5,392.0 94.5,393.0 94.5,394.0 94.5,395.0 94.5,396.0 94.5,397.0 94.5,398.0 94.5,399.0 94.5,400.0 94.5,401.0 94.5,402.0 94.5,403.0 94.5,404.0 94.5,405.0 94.5,406.0 94.5,407.0 94.5,408.0 94.5,409.0 95.0,409.5 95.5,410.0 95.5,411.0 95.5,412.0 95.5,413.0 95.5,414.0 95.5,415.0 95.5,416.0 95.5,417.0 96.0,417.5 96.5,418.0 96.5,419.0 96.5,420.0 96.5,421.0 96.5,422.0 96.5,423.0 96.5,424.0 96.5,425.0 96.5,426.0 96.5,427.0 96.5,428.0 96.5,429.0 96.5,430.0 96.5,431.0 96.5,432.0 96.5,433.0 96.5,434.0 96.5,435.0 96.5,436.0 96.5,437.0 96.5,438.0 96.5,439.0 96.5,440.0 96.5,441.0 96.5,442.0 96.0,442.5 95.5,443.0 95.5,444.0 95.5,445.0 95.5,446.0 95.5,447.0 95.5,448.0 95.5,449.0 95.5,450.0 95.5,451.0 95.5,452.0 95.0,452.5 94.5,453.0 94.5,454.0 94.5,455.0 94.5,456.0 94.5,457.0 94.5,458.0 94.5,459.0 94.5,460.0 94.5,461.0 94.5,462.0 94.5,463.0 94.0,463.5 93.5,464.0 93.5,465.0 93.5,466.0 93.5,467.0 93.5,468.0 93.5,469.0 93.5,470.0 93.5,471.0 93.5,472.0 93.5,473.0 93.5,474.0 93.5,475.0 93.5,476.0 93.5,477.0 93.5,478.0 93.5,479.0 93.5,480.0 93.5,481.0 93.5,482.0 93.5,483.0 93.5,484.0 93.5,485.0 93.5,486.0 93.5,487.0 93.5,488.0 93.5,489.0 93.5,490.0 93.5,491.0 93.5,492.0 93.5,493.0 93.5,494.0 93.5,495.0 93.5,496.0 94.0,496.5 94.5,497.0 94.5,498.0 94.5,499.0 94.5,500.0 94.5,501.0 94.5,502.0 94.5,503.0 94.5,504.0 94.5,505.0 94.5,506.0 94.5,507.0 94.5,508.0 94.5,509.0 94.5,510.0 94.5,511.0 94.5,512.0 94.5,513.0 94.5,514.0 94.5,515.0 94.5,516.0 94.5,517.0 94.5,518.0 94.5,519.0 94.5,520.0 94.5,521.0 94.5,522.0 94.5,523.0 94.5,524.0 94.5,525.0 95.0,525.5 95.5,526.0 95.5,527.0 95.5,528.0 95.5,529.0 95.5,530.0 95.0,530.5 94.5,531.0 94.5,532.0 94.0,532.5 93.5,533.0 93.0,533.5 92.5,534.0 92.0,534.5 91.0,534.5 90.5,535.0 90.0,535.5 89.0,535.5 88.0,535.5 87.0,535.5 86.5,536.0 86.0,536.5 85.0,536.5 84.0,536.5 83.0,536.5 82.0,536.5 81.0,536.5 80.0,536.5 79.0,536.5 78.0,536.5 77.0,536.5 76.0,536.5 75.5,536.0 75.0,535.5 74.0,535.5 73.0,535.5 72.0,535.5 71.0,535.5 70.0,535.5 69.5,535.0 69.0,534.5 68.0,534.5 67.5,534.0 67.0,533.5 66.5,533.0 66.0,532.5 65.5,532.0 65.0,531.5 64.5,531.0 64.5,530.0 64.5,529.0 64.0,528.5 63.5,528.0 64.0,527.5 64.5,527.0 64.5,526.0 64.5,525.0 65.0,524.5 65.5,524.0 65.5,523.0 66.0,522.5 66.5,522.0 67.0,521.5 67.5,521.0 67.5,520.0 68.0,519.5 68.5,519.0 68.5,518.0 69.0,517.5 69.5,517.0 69.5,516.0 70.0,515.5 70.5,515.0 70.5,514.0 70.5,513.0 70.5,512.0 71.0,511.5 71.5,511.0 71.5,510.0 72.0,509.5 72.5,509.0 72.5,508.0 72.5,507.0 72.5,506.0 72.5,505.0 72.5,504.0 72.5,503.0 73.0,502.5 73.5,502.0 73.5,501.0 73.5,500.0 73.5,499.0 73.5,498.0 73.5,497.0 73.5,496.0 73.5,495.0 73.5,494.0 73.5,493.0 73.5,492.0 73.5,491.0 73.5,490.0 73.5,489.0 73.0,488.5 72.5,488.0 72.5,487.0 72.5,486.0 72.5,485.0 72.5,484.0 72.5,483.0 72.5,482.0 72.0,481.5 71.5,481.0 71.5,480.0 71.5,479.0 71.5,478.0 71.0,477.5 70.5,477.0 70.5,476.0 70.5,475.0 70.5,474.0 70.5,473.0 70.5,472.0 70.5,471.0 70.5,470.0 70.0,469.5 69.5,469.0 69.5,468.0 69.5,467.0 69.5,466.0 69.0,465.5 68.5,465.0 68.5,464.0 68.5,463.0 68.5,462.0 68.5,461.0 68.5,460.0 68.0,459.5 67.5,459.0 67.5,458.0 67.5,457.0 67.5,456.0 67.0,455.5 66.5,455.0 66.5,454.0 66.5,453.0 66.5,452.0 66.5,451.0 66.0,450.5 65.5,450.0 65.5,449.0 65.5,448.0 65.5,447.0 65.5,446.0 65.5,445.0 65.5,444.0 65.0,443.5 64.5,443.0 64.5,442.0 64.5,441.0 64.5,440.0 64.5,439.0 64.0,438.5 63.5,438.0 63.5,437.0 63.5,436.0 63.5,435.0 63.5,434.0 63.5,433.0 63.5,432.0 63.5,431.0 63.5,430.0 63.0,429.5 62.5,429.0 62.5,428.0 62.5,427.0 62.5,426.0 62.5,425.0 62.5,424.0 62.0,423.5 61.5,423.0 61.5,422.0 61.5,421.0 61.5,420.0 61.5,419.0 61.5,418.0 61.5,417.0 61.5,416.0 61.5,415.0 61.5,414.0 61.5,413.0 61.5,412.0 61.5,411.0 61.5,410.0 61.5,409.0 61.5,408.0 61.5,407.0 61.5,406.0 62.0,405.5 62.5,405.0 62.5,404.0 62.5,403.0 62.5,402.0 62.5,401.0 62.5,400.0 63.0,399.5 63.5,399.0 63.5,398.0 63.5,397.0 63.5,396.0 63.5,395.0 63.5,394.0 63.5,393.0 63.5,392.0 63.5,391.0 63.5,390.0 63.5,389.0 63.5,388.0 63.5,387.0 63.5,386.0 63.5,385.0 63.5,384.0 63.5,383.0 63.5,382.0 63.5,381.0 63.5,380.0 63.5,379.0 63.5,378.0 63.5,377.0 63.5,376.0 63.5,375.0 63.5,374.0 63.5,373.0 63.5,372.0 63.5,371.0 63.5,370.0 63.5,369.0 63.0,368.5 62.5,368.0 62.5,367.0 62.5,366.0 62.5,365.0 62.0,364.5 61.5,364.0 61.5,363.0 61.5,362.0 61.5,361.0 61.5,360.0 61.5,359.0 61.0,358.5 60.5,358.0 60.5,357.0 60.5,356.0 60.0,355.5 59.5,355.0 59.5,354.0 59.5,353.0 59.5,352.0 59.0,351.5 58.5,351.0 58.5,350.0 58.5,349.0 58.5,348.0 58.5,347.0 58.5,346.0 58.0,345.5 57.5,345.0 57.5,344.0 57.5,343.0 57.0,342.5 56.5,342.0 56.5,341.0 56.5,340.0 56.5,339.0 56.5,338.0 56.0,337.5 55.5,337.0 55.5,336.0 55.5,335.0 55.0,334.5 54.5,334.0 54.5,333.0 54.5,332.0 54.5,331.0 54.5,330.0 54.5,329.0 54.0,328.5 53.5,328.0 53.5,327.0 53.5,326.0 53.0,325.5 52.5,325.0 52.5,324.0 52.5,323.0 52.5,322.0 52.0,321.5 51.5,321.0 51.5,320.0 51.5,319.0 51.5,318.0 51.5,317.0 51.0,316.5 50.5,316.0 50.5,315.0 50.5,314.0 50.5,313.0 50.5,312.0 50.0,311.5 49.5,311.0 49.5,310.0 49.5,309.0 49.5,308.0 49.5,307.0 49.5,306.0 49.0,305.5 48.5,305.0 48.5,304.0 48.5,303.0 48.5,302.0 48.0,301.5 47.5,301.0 47.5,300.0 47.5,299.0 47.5,298.0 47.5,297.0 47.5,296.0 47.5,295.0 47.0,294.5 46.5,294.0 46.5,293.0 46.5,292.0 46.5,291.0 46.5,290.0 46.5,289.0 46.0,288.5 45.5,288.0 45.5,287.0 45.5,286.0 45.5,285.0 45.5,284.0 45.0,283.5 44.5,283.0 44.5,282.0 44.5,281.0 44.5,280.0 44.5,279.0 44.5,278.0 44.5,277.0 44.5,276.0 44.5,275.0 44.5,274.0 44.5,273.0 44.5,272.0 44.5,271.0 44.5,270.0 44.5,269.0 44.5,268.0 44.5,267.0 44.5,266.0 44.5,265.0 44.5,264.0 44.5,263.0 44.5,262.0 44.5,261.0 44.5,260.0 44.5,259.0 44.5,258.0 44.5,257.0 44.5,256.0 45.0,255.5 45.5,255.0 45.5,254.0 45.5,253.0 45.5,252.0 45.5,251.0 46.0,250.5 46.5,250.0 46.5,249.0 46.5,248.0 46.5,247.0 46.5,246.0 46.5,245.0 47.0,244.5 47.5,244.0 47.5,243.0 47.5,242.0 47.5,241.0 48.0,240.5 48.5,240.0 48.5,239.0 48.5,238.0 49.0,237.5 49.5,237.0 49.5,236.0 49.5,235.0 49.5,234.0 49.5,233.0 50.0,232.5 50.5,232.0 50.5,231.0 51.0,230.5 51.5,230.0 51.5,229.0 51.5,228.0 52.0,227.5 52.5,227.0 52.5,226.0 52.5,225.0 53.0,224.5 53.5,224.0 53.5,223.0 54.0,222.5 54.5,222.0 54.5,221.0 55.0,220.5 55.5,220.0 55.5,219.0 56.0,218.5 56.5,218.0 56.5,217.0 56.5,216.0 57.0,215.5 57.5,215.0 57.5,214.0 58.0,213.5 58.5,213.0 58.5,212.0 59.0,211.5 59.5,211.0 59.5,210.0 60.0,209.5 60.5,209.0 60.5,208.0 61.0,207.5 61.5,207.0 61.5,206.0 62.0,205.5 62.5,205.0 62.5,204.0 63.0,203.5 63.5,203.0 63.5,202.0 63.5,201.0 64.0,200.5 64.5,200.0 65.0,199.5 65.5,199.0 65.5,198.0 65.5,197.0 66.0,196.5 66.5,196.0 66.5,195.0 66.5,194.0 67.0,193.5 67.5,193.0 67.5,192.0 67.5,191.0 67.5,190.0 67.5,189.0 67.5,188.0 67.5,187.0 67.5,186.0 67.5,185.0 67.5,184.0 67.5,183.0 67.5,182.0 67.5,181.0 67.5,180.0 67.0,179.5 66.5,179.0 66.5,178.0 66.5,177.0 66.5,176.0 66.0,175.5 65.5,175.0 65.5,174.0 65.5,173.0 65.5,172.0 65.0,171.5 64.5,171.0 64.5,170.0 64.5,169.0 64.0,168.5 63.5,168.0 63.5,167.0 63.5,166.0 63.5,165.0 63.5,164.0 63.0,163.5 62.5,163.0 62.5,162.0 62.5,161.0 62.0,160.5 61.5,160.0 61.5,159.0 61.5,158.0 61.5,157.0 61.0,156.5 60.5,157.0 60.5,158.0 60.5,159.0 60.5,160.0 60.5,161.0 60.5,162.0 60.5,163.0 60.0,163.5 59.5,164.0 59.5,165.0 59.5,166.0 59.5,167.0 59.5,168.0 59.5,169.0 59.5,170.0 59.0,170.5 58.5,171.0 58.5,172.0 58.5,173.0 58.5,174.0 58.5,175.0 58.5,176.0 58.5,177.0 58.5,178.0 58.5,179.0 58.5,180.0 58.5,181.0 58.5,182.0 58.5,183.0 58.5,184.0 58.5,185.0 58.5,186.0 58.5,187.0 58.5,188.0 58.5,189.0 58.5,190.0 58.5,191.0 58.0,191.5 57.5,192.0 57.5,193.0 57.5,194.0 57.5,195.0 57.5,196.0 57.5,197.0 57.0,197.5 56.5,198.0 56.5,199.0 56.5,200.0 56.5,201.0 56.5,202.0 56.5,203.0 56.0,203.5 55.5,204.0 55.5,205.0 55.5,206.0 55.0,206.5 54.5,207.0 54.5,208.0 54.5,209.0 54.5,210.0 54.5,211.0 54.0,211.5 53.5,212.0 53.5,213.0 53.0,213.5 52.5,214.0 52.5,215.0 52.5,216.0 52.5,217.0 52.0,217.5 51.5,218.0 51.5,219.0 51.5,220.0 51.0,220.5 50.5,221.0 50.5,222.0 50.0,222.5 49.5,223.0 49.5,224.0 49.5,225.0 49.5,226.0 49.0,226.5 48.5,227.0 48.5,228.0 48.0,228.5 47.5,229.0 47.5,230.0 47.5,231.0 47.5,232.0 47.0,232.5 46.5,233.0 46.5,234.0 46.5,235.0 46.0,235.5 45.5,236.0 45.5,237.0 45.5,238.0 45.0,238.5 44.5,239.0 44.5,240.0 44.5,241.0 44.5,242.0 44.0,242.5 43.5,243.0 43.5,244.0 43.5,245.0 43.0,245.5 42.5,246.0 42.5,247.0 42.5,248.0 42.0,248.5 41.5,249.0 41.5,250.0 41.5,251.0 41.0,251.5 40.5,252.0 40.5,253.0 40.5,254.0 40.5,255.0 40.5,256.0 40.5,257.0 40.0,257.5 39.5,258.0 39.5,259.0 39.5,260.0 39.5,261.0 39.5,262.0 40.0,262.5 40.5,263.0 40.5,264.0 40.5,265.0 40.5,266.0 41.0,266.5 41.5,267.0 41.5,268.0 42.0,268.5 42.5,269.0 42.5,270.0 43.0,270.5 43.5,271.0 43.5,272.0 43.5,273.0 43.5,274.0 43.5,275.0 43.5,276.0 43.5,277.0 43.5,278.0 43.5,279.0 43.5,280.0 43.5,281.0 43.5,282.0 43.0,282.5 42.5,283.0 42.5,284.0 42.5,285.0 42.5,286.0 42.5,287.0 42.5,288.0 42.5,289.0 42.5,290.0 42.5,291.0 42.5,292.0 42.5,293.0 42.5,294.0 42.5,295.0 42.5,296.0 42.0,296.5 41.0,296.5 40.0,296.5 39.0,296.5 38.0,296.5 37.0,296.5 36.5,296.0 36.0,295.5 35.5,296.0 36.0,296.5 36.5,297.0 37.0,297.5 37.5,298.0 38.0,298.5 38.5,299.0 38.5,300.0 39.0,300.5 39.5,301.0 40.0,301.5 40.5,302.0 40.5,303.0 40.5,304.0 40.5,305.0 40.5,306.0 40.5,307.0 40.0,307.5 39.5,308.0 39.0,308.5 38.0,308.5 37.0,308.5 36.0,308.5 35.0,308.5 34.5,308.0 34.0,307.5 33.0,307.5 32.0,307.5 31.5,307.0 31.0,306.5 30.5,306.0 30.0,305.5 29.5,305.0 29.0,304.5 28.5,304.0 28.0,303.5 27.5,303.0 27.0,302.5 26.5,302.0 26.0,301.5 25.5,301.0 25.5,300.0 25.5,299.0 25.0,298.5 24.5,298.0 24.0,297.5 23.5,297.0 23.5,296.0 23.5,295.0 23.5,294.0 23.0,293.5 22.5,293.0 22.5,292.0 22.0,291.5 21.5,291.0 21.5,290.0 21.5,289.0 21.5,288.0 21.0,287.5 20.5,287.0 20.5,286.0 20.5,285.0 20.5,284.0 20.5,283.0 20.5,282.0 20.5,281.0 20.5,280.0 20.5,279.0 20.5,278.0 20.5,277.0 21.0,276.5 21.5,276.0 21.5,275.0 21.5,274.0 21.5,273.0 21.5,272.0 21.5,271.0 21.5,270.0 22.0,269.5 22.5,269.0 22.5,268.0 22.5,267.0 22.5,266.0 22.5,265.0 23.0,264.5 23.5,264.0 23.5,263.0 23.5,262.0 23.5,261.0 23.5,260.0 23.5,259.0 23.5,258.0 24.0,257.5 24.5,257.0 24.5,256.0 24.5,255.0 24.5,254.0 24.5,253.0 24.5,252.0 25.0,251.5 25.5,251.0 25.5,250.0 25.5,249.0 25.5,248.0 25.5,247.0 25.5,246.0 25.5,245.0 25.5,244.0 25.5,243.0 25.5,242.0 26.0,241.5 26.5,241.0 26.5,240.0 26.5,239.0 26.5,238.0 26.5,237.0 26.5,236.0 26.5,235.0 26.5,234.0 26.5,233.0 26.5,232.0 26.5,231.0 27.0,230.5 27.5,230.0 27.5,229.0 27.5,228.0 27.5,227.0 27.5,226.0 27.5,225.0 27.5,224.0 27.5,223.0 27.5,222.0 27.5,221.0 27.5,220.0 28.0,219.5 28.5,219.0 28.5,218.0 28.5,217.0 28.5,216.0 28.5,215.0 28.5,214.0 28.5,213.0 28.5,212.0 28.5,211.0 28.5,210.0 28.5,209.0 28.5,208.0 29.0,207.5 29.5,207.0 29.5,206.0 29.5,205.0 29.5,204.0 30.0,203.5 30.5,203.0 30.5,202.0 30.5,201.0 30.5,200.0 30.5,199.0 30.5,198.0 31.0,197.5 31.5,197.0 31.5,196.0 31.5,195.0 32.0,194.5 32.5,194.0 32.5,193.0 32.5,192.0 32.5,191.0 33.0,190.5 33.5,190.0 33.5,189.0 34.0,188.5 34.5,188.0 34.5,187.0 34.5,186.0 34.5,185.0 35.0,184.5 35.5,184.0 35.5,183.0 35.5,182.0 35.5,181.0 35.5,180.0 36.0,179.5 36.5,179.0 36.5,178.0 36.5,177.0 36.5,176.0 36.5,175.0 36.5,174.0 36.5,173.0 36.5,172.0 36.5,171.0 36.5,170.0 36.5,169.0 36.5,168.0 36.5,167.0 36.0,166.5 35.5,166.0 35.5,165.0 35.5,164.0 35.5,163.0 35.5,162.0 35.5,161.0 35.5,160.0 35.5,159.0 35.5,158.0 35.5,157.0 35.5,156.0 35.5,155.0 35.5,154.0 35.5,153.0 35.5,152.0 35.5,151.0 35.5,150.0 35.5,149.0 35.5,148.0 35.5,147.0 35.5,146.0 35.5,145.0 35.5,144.0 35.5,143.0 35.5,142.0 35.5,141.0 35.5,140.0 35.5,139.0 35.5,138.0 35.5,137.0 35.5,136.0 35.5,135.0 36.0,134.5 36.5,134.0 36.5,133.0 36.5,132.0 36.5,131.0 36.5,130.0 36.5,129.0 36.5,128.0 36.5,127.0 36.5,126.0 36.5,125.0 36.5,124.0 37.0,123.5 37.5,123.0 37.5,122.0 37.5,121.0 37.5,120.0 37.5,119.0 37.5,118.0 38.0,117.5 38.5,117.0 38.5,116.0 38.5,115.0 39.0,114.5 39.5,114.0 39.5,113.0 39.5,112.0 40.0,111.5 40.5,111.0 40.5,110.0 41.0,109.5 41.5,109.0 41.5,108.0 42.0,107.5 42.5,107.0 42.5,106.0 43.0,105.5 43.5,105.0 44.0,104.5 44.5,104.0 45.0,103.5 45.5,103.0 46.0,102.5 46.5,102.0 47.0,101.5 48.0,101.5 48.5,101.0 49.0,100.5 50.0,100.5 50.5,100.0 51.0,99.5 52.0,99.5 53.0,99.5 53.5,99.0 54.0,98.5 55.0,98.5 56.0,98.5 56.5,98.0 57.0,97.5 58.0,97.5 59.0,97.5 60.0,97.5 60.5,97.0 61.0,96.5 62.0,96.5 63.0,96.5 64.0,96.5 65.0,96.5 65.5,96.0 66.0,95.5 67.0,95.5 68.0,95.5 68.5,95.0 69.0,94.5 70.0,94.5 71.0,94.5 72.0,94.5 72.5,94.0 73.0,93.5 74.0,93.5 74.5,93.0 75.0,92.5 76.0,92.5 76.5,92.0 77.0,91.5 78.0,91.5 78.5,91.0 79.0,90.5 79.5,90.0 80.0,89.5 80.5,89.0 80.5,88.0 81.0,87.5 81.5,87.0 82.0,86.5 82.5,86.0 82.5,85.0 82.5,84.0 82.5,83.0 82.5,82.0 82.5,81.0 82.5,80.0 82.5,79.0 82.5,78.0 82.5,77.0 82.5,76.0 82.5,75.0 82.5,74.0 82.5,73.0 82.0,72.5 81.5,72.0 81.0,71.5 80.5,71.0 80.5,70.0 80.0,69.5 79.5,69.0 79.0,68.5 78.5,68.0 78.5,67.0 78.0,66.5 77.5,66.0 77.5,65.0 77.5,64.0 77.5,63.0 77.0,62.5 76.5,62.0 76.5,61.0 76.0,60.5 75.5,60.0 75.0,59.5 74.5,59.0 74.0,58.5 73.5,58.0 73.0,57.5 72.5,57.0 72.5,56.0 72.0,55.5 71.5,55.0 71.5,54.0 71.5,53.0 71.0,52.5 70.5,52.0 70.5,51.0 70.5,50.0 71.0,49.5 71.5,49.0 71.5,48.0 71.5,47.0 72.0,46.5 72.5,46.0 72.5,45.0 72.5,44.0 72.5,43.0 73.0,42.5 73.5,42.0 73.5,41.0 73.5,40.0 73.0,39.5 72.5,39.0 72.5,38.0 72.5,37.0 72.5,36.0 72.5,35.0 72.5,34.0 72.5,33.0 72.5,32.0 72.5,31.0 72.5,30.0 73.0,29.5 73.5,29.0 73.5,28.0 73.5,27.0 73.5,26.0 74.0,25.5 74.5,25.0 74.5,24.0 74.5,23.0 74.5,22.0 75.0,21.5 75.5,21.0 75.5,20.0 76.0,19.5 76.5,19.0 76.5,18.0 77.0,17.5 77.5,17.0 78.0,16.5 78.5,16.0 79.0,15.5 79.5,15.0 80.0,14.5 80.5,14.0 81.0,13.5 82.0,13.5 82.5,13.0 83.0,12.5 84.0,12.5 84.5,12.0 85.0,11.5 86.0,11.5 86.5,11.0 87.0,10.5 88.0,10.5 89.0,10.5 89.5,10.0 90.0,9.5 91.0,9.5 92.0,9.5 93.0,9.5 94.0,9.5 95.0,9.5 96.0,9.5 97.0,9.5 98.0,9.5 99.0,9.5 100.0,9.5 101.0,9.5 102.0,9.5 103.0,9.5 104.0,9.5 104.5,10.0 105.0,10.5 106.0,10.5 107.0,10.5 107.5,11.0 108.0,11.5 109.0,11.5 110.0,11.5 110.5,12.0 111.0,12.5 112.0,12.5 112.5,13.0 113.0,13.5 113.5,14.0 114.0,14.5 114.5,15.0 115.0,15.5 115.5,16.0 116.0,16.5 116.5,17.0 117.0,17.5 117.5,18.0 118.0,18.5 118.5,19.0 118.5,20.0 118.5,21.0 119.0,21.5 119.5,22.0 119.5,23.0 120.0,23.5 120.5,24.0 120.5,25.0 120.5,26.0 120.5,27.0 120.5,28.0 121.0,28.5 121.5,29.0 121.5,30.0 121.5,31.0 121.5,32.0 121.5,33.0 121.5,34.0 121.5,35.0 121.5,36.0 121.5,37.0 121.5,38.0 121.5,39.0 121.5,40.0 121.5,41.0 121.5,42.0 121.5,43.0 121.5,44.0 122.0,44.5 122.5,45.0 122.5,46.0 123.0,46.5 123.5,47.0 123.5,48.0 123.5,49.0 123.5,50.0 123.5,51.0 123.5,52.0 123.5,53.0 123.5,54.0 123.0,54.5 122.5,55.0 122.5,56.0 122.0,56.5 121.5,57.0 121.5,58.0 121.0,58.5 120.5,59.0 120.0,59.5 119.5,60.0 119.0,60.5 118.5,61.0 118.0,61.5 117.5,62.0 117.5,63.0 117.5,64.0 117.0,64.5 116.5,65.0 116.5,66.0 116.5,67.0 116.0,67.5 115.5,68.0 115.0,68.5 114.5,69.0 114.5,70.0 114.0,70.5 113.5,71.0 113.0,71.5 112.5,72.0 112.5,73.0 112.0,73.5 111.5,74.0 111.5,75.0 111.5,76.0 111.5,77.0 111.5,78.0 111.5,79.0 111.5,80.0 111.5,81.0 111.5,82.0 111.5,83.0 112.0,83.5 112.5,84.0 112.5,85.0 113.0,85.5 113.5,86.0 113.5,87.0 114.0,87.5 114.5,88.0 115.0,88.5 115.5,89.0 116.0,89.5 116.5,90.0 117.0,90.5 117.5,91.0 118.0,91.5 118.5,92.0 119.0,92.5 120.0,92.5 120.5,93.0 121.0,93.5 122.0,93.5 122.5,94.0 123.0,94.5 124.0,94.5 125.0,94.5 125.5,95.0 126.0,95.5 127.0,95.5 128.0,95.5 129.0,95.5 129.5,96.0 130.0,96.5 131.0,96.5 132.0,96.5 133.0,96.5 133.5,97.0 134.0,97.5 135.0,97.5 136.0,97.5 137.0,97.5 138.0,97.5 138.5,98.0 139.0,98.5 140.0,98.5 140.5,99.0 141.0,99.5 142.0,99.5 143.0,99.5 144.0,99.5 144.5,100.0 145.0,100.5 146.0,100.5 146.5,101.0 147.0,101.5 147.5,102.0 148.0,102.5 149.0,102.5 149.5,103.0 150.0,103.5 150.5,104.0 151.0,104.5 151.5,105.0 152.0,105.5 152.5,106.0 152.5,107.0 153.0,107.5 153.5,108.0 153.5,109.0 154.0,109.5 154.5,110.0 154.5,111.0 154.5,112.0 155.0,112.5 155.5,113.0 155.5,114.0 155.5,115.0 156.0,115.5 156.5,116.0 156.5,117.0 156.5,118.0 156.5,119.0 157.0,119.5 157.5,120.0 157.5,121.0 157.5,122.0 157.5,123.0 157.5,124.0 157.5,125.0 157.5,126.0 157.5,127.0 157.5,128.0 157.5,129.0 157.5,130.0 157.5,131.0 158.0,131.5 158.5,132.0 158.5,133.0 158.5,134.0 158.5,135.0 158.5,136.0 158.5,137.0 158.5,138.0 158.5,139.0 158.5,140.0 158.5,141.0 158.5,142.0 158.5,143.0 158.5,144.0 158.5,145.0 158.5,146.0 158.5,147.0 158.5,148.0 158.5,149.0 158.5,150.0 158.5,151.0 158.5,152.0 158.5,153.0 158.5,154.0 158.5,155.0 158.5,156.0 158.5,157.0 158.5,158.0 158.5,159.0 158.5,160.0 158.5,161.0 158.5,162.0 158.5,163.0 158.5,164.0 158.5,165.0 158.5,166.0 158.5,167.0 158.5,168.0 158.5,169.0 158.5,170.0 158.5,171.0 158.5,172.0 158.5,173.0 158.5,174.0 158.5,175.0 158.5,176.0 158.5,177.0 158.5,178.0 158.5,179.0 158.5,180.0 158.5,181.0 159.0,181.5 159.5,182.0 159.5,183.0 159.5,184.0 160.0,184.5 160.5,185.0 160.5,186.0 160.5,187.0 160.5,188.0 161.0,188.5 161.5,189.0 161.5,190.0 161.5,191.0 161.5,192.0 161.5,193.0 162.0,193.5 162.5,194.0 162.5,195.0 163.0,195.5 163.5,196.0 163.0,196.5 162.5,197.0 163.0,197.5 163.5,198.0 163.5,199.0 163.5,200.0 164.0,200.5 164.5,201.0 164.5,202.0 164.5,203.0 164.5,204.0 164.5,205.0 165.0,205.5 165.5,206.0 165.5,207.0 165.5,208.0 165.5,209.0 165.5,210.0 165.5,211.0 165.5,212.0 166.0,212.5 166.5,213.0 166.5,214.0 166.5,215.0 166.5,216.0 166.5,217.0 166.5,218.0 166.5,219.0 166.5,220.0 167.0,220.5 167.5,221.0 167.5,222.0 167.5,223.0 167.5,224.0 167.5,225.0 167.5,226.0 167.5,227.0 167.5,228.0 167.5,229.0 167.5,230.0 167.5,231.0 167.5,232.0 167.5,233.0 167.5,234.0 167.5,235.0 167.5,236.0 167.5,237.0 167.5,238.0 167.5,239.0 167.5,240.0 168.0,240.5 168.5,241.0 168.5,242.0 168.5,243.0 168.5,244.0 168.5,245.0 168.5,246.0 168.5,247.0 168.5,248.0 168.5,249.0 168.5,250.0 169.0,250.5 169.5,251.0 169.5,252.0 169.5,253.0 169.5,254.0 169.5,255.0 169.5,256.0 170.0,256.5 170.5,257.0 170.5,258.0 170.5,259.0 170.5,260.0 170.5,261.0 170.5,262.0 170.5,263.0 171.0,263.5 171.5,264.0 171.5,265.0 171.5,266.0 172.0,266.5 172.5,267.0 172.5,268.0 172.5,269.0 172.5,270.0 172.5,271.0 172.5,272.0 172.5,273.0 173.0,273.5 173.5,274.0 173.5,275.0 173.5,276.0 173.5,277.0 173.5,278.0 173.5,279.0 173.5,280.0 173.5,281.0 174.0,281.5 174.5,282.0 174.5,283.0 174.0,283.5 173.5,284.0 173.5,285.0 173.5,286.0 173.5,287.0 173.5,288.0 173.0,288.5 172.5,289.0 172.5,290.0 172.5,291.0 172.5,292.0 172.5,293.0 172.0,293.5 171.5,294.0 171.5,295.0 171.0,295.5 170.5,296.0 170.5,297.0 170.5,298.0 170.0,298.5 169.5,299.0 169.0,299.5 168.5,300.0 168.5,301.0 168.0,301.5 167.5,302.0 167.0,302.5 166.5,303.0 166.0,303.5 165.5,304.0 165.0,304.5 164.5,305.0 164.0,305.5 163.5,306.0 163.0,306.5 162.0,306.5 161.5,307.0 161.0,307.5 160.0,307.5 159.5,308.0 159.0,308.5 158.0,308.5 157.0,308.5 156.0,308.5 155.0,308.5 154.0,308.5 153.5,308.0 153.5,307.0 153.5,306.0 153.5,305.0 153.5,304.0 153.5,303.0 153.5,302.0 154.0,301.5 155.0,301.5 155.5,301.0 155.5,300.0 156.0,299.5 156.5,299.0 157.0,298.5 157.5,298.0 157.5,297.0 158.0,296.5 158.5,296.0 158.0,295.5 157.5,296.0 157.0,296.5 156.0,296.5 155.0,296.5 154.0,296.5 153.0,296.5 152.0,296.5 151.5,296.0 151.5,295.0 151.5,294.0 151.5,293.0 151.5,292.0 151.5,291.0 151.5,290.0 151.5,289.0 151.5,288.0 151.5,287.0 151.5,286.0 151.5,285.0 151.5,284.0 151.5,283.0 151.5,282.0 151.5,281.0 151.5,280.0 151.5,279.0 151.0,278.5 150.5,278.0 150.5,277.0 150.5,276.0 150.5,275.0 150.5,274.0 150.5,273.0 150.5,272.0 150.5,271.0 151.0,270.5 151.5,270.0 151.5,269.0 152.0,268.5 152.5,268.0 152.5,267.0 153.0,266.5 153.5,266.0 153.5,265.0 153.5,264.0 154.0,263.5 154.5,263.0 154.5,262.0 154.5,261.0 154.5,260.0 154.5,259.0 154.5,258.0 154.5,257.0 154.5,256.0 154.0,255.5 153.5,255.0 153.5,254.0 153.5,253.0 153.5,252.0 153.5,251.0 153.5,250.0 153.0,249.5 152.5,249.0 152.5,248.0 152.5,247.0 152.0,246.5 151.5,246.0 151.5,245.0 151.5,244.0 151.5,243.0 151.0,242.5 150.5,242.0 150.5,241.0 150.0,240.5 149.5,240.0 149.5,239.0 149.5,238.0 149.5,237.0 149.0,236.5 148.5,236.0 148.5,235.0 148.5,234.0 148.5,233.0 148.0,232.5 147.5,232.0 147.5,231.0 147.0,230.5 146.5,230.0 146.5,229.0 146.5,228.0 146.0,227.5 145.5,227.0 145.5,226.0 145.5,225.0 145.0,224.5 144.5,224.0 144.5,223.0 144.5,222.0 144.5,221.0 144.0,220.5 143.5,220.0 143.5,219.0 143.5,218.0 143.0,217.5 142.5,217.0 142.5,216.0 142.0,215.5 141.5,215.0 141.5,214.0 141.5,213.0 141.5,212.0 141.0,211.5 140.5,211.0 140.5,210.0 140.0,209.5 139.5,209.0 139.5,208.0 139.5,207.0 139.5,206.0 139.5,205.0 139.0,204.5 138.5,204.0 138.5,203.0 138.5,202.0 138.0,201.5 137.5,201.0 137.5,200.0 137.5,199.0 137.5,198.0 137.5,197.0 137.0,196.5 136.5,196.0 136.5,195.0 136.5,194.0 136.5,193.0 136.5,192.0 136.5,191.0 136.5,190.0 136.5,189.0 136.5,188.0 136.5,187.0 136.5,186.0 136.5,185.0 136.5,184.0 136.5,183.0 136.0,182.5 135.5,182.0 135.5,181.0 135.5,180.0 135.5,179.0 135.5,178.0 135.5,177.0 135.5,176.0 135.5,175.0 135.5,174.0 135.5,173.0 135.5,172.0 135.5,171.0 135.0,170.5 134.5,170.0 134.5,169.0 134.5,168.0 134.5,167.0 134.5,166.0 134.5,165.0 134.5,164.0 134.5,163.0 134.5,162.0 134.5,161.0 134.5,160.0 134.5,159.0 134.0,158.5 133.5,158.0 133.5,157.0 133.5,156.0 133.0,155.5 132.5,156.0 132.5,157.0 132.5,158.0 132.5,159.0 132.5,160.0 132.5,161.0 132.0,161.5 131.5,162.0 131.5,163.0 131.5,164.0 131.0,164.5 130.5,165.0 130.5,166.0 130.5,167.0 130.5,168.0 130.0,168.5 129.5,169.0 129.5,170.0 129.5,171.0 129.5,172.0 129.5,173.0 129.0,173.5 128.5,174.0 128.5,175.0 128.5,176.0 128.0,176.5 127.5,177.0 127.5,178.0 127.5,179.0 127.5,180.0 127.5,181.0 127.5,182.0 127.5,183.0 127.5,184.0 127.5,185.0 127.0,185.5 126.5,186.0 126.5,187.0 126.5,188.0 126.5,189.0 127.0,189.5 127.5,190.0 127.5,191.0 127.5,192.0 127.5,193.0 127.5,194.0 128.0,194.5 128.5,195.0 128.5,196.0 128.5,197.0 129.0,197.5 129.5,198.0 129.5,199.0 130.0,199.5 130.5,200.0 130.5,201.0 130.5,202.0 131.0,202.5 131.5,203.0 131.5,204.0 132.0,204.5 132.5,205.0 132.5,206.0 133.0,206.5 133.5,207.0 133.5,208.0 134.0,208.5 134.5,209.0 134.5,210.0 135.0,210.5 135.5,211.0 135.5,212.0 136.0,212.5 136.5,213.0 136.5,214.0 137.0,214.5 137.5,215.0 137.5,216.0 137.5,217.0 138.0,217.5 138.5,218.0 138.5,219.0 139.0,219.5 139.5,220.0 139.5,221.0 140.0,221.5 140.5,222.0 140.5,223.0 140.5,224.0 141.0,224.5 141.5,225.0 141.5,226.0 142.0,226.5 142.5,227.0 142.5,228.0 143.0,228.5 143.5,229.0 143.5,230.0 143.5,231.0 144.0,231.5 144.5,232.0 144.5,233.0 144.5,234.0 144.5,235.0 145.0,235.5 145.5,236.0 145.5,237.0 146.0,237.5 146.5,238.0 146.5,239.0 146.5,240.0 146.5,241.0 147.0,241.5 147.5,242.0 147.5,243.0 147.5,244.0 147.5,245.0 147.5,246.0 148.0,246.5 148.5,247.0 148.5,248.0 148.5,249.0 148.5,250.0 149.0,250.5 149.5,251.0 149.5,252.0 149.5,253.0 149.5,254.0 149.5,255.0 149.5,256.0 149.5,257.0 150.0,257.5 150.5,258.0 150.5,259.0 150.5,260.0 150.5,261.0 150.5,262.0 150.5,263.0 150.5,264.0 150.5,265.0 150.5,266.0 150.5,267.0 150.5,268.0 150.5,269.0 150.5,270.0 150.0,270.5 149.5,271.0 149.5,272.0 149.5,273.0 149.5,274.0 149.5,275.0 149.5,276.0 149.5,277.0 149.5,278.0 149.5,279.0 149.5,280.0 149.5,281.0 149.5,282.0 149.5,283.0 149.5,284.0 149.5,285.0 149.0,285.5 148.5,286.0 148.5,287.0 148.5,288.0 148.5,289.0 148.5,290.0 148.5,291.0 148.5,292.0 148.5,293.0 148.0,293.5 147.5,294.0 147.5,295.0 147.5,296.0 147.5,297.0 147.5,298.0 147.0,298.5 146.5,299.0 146.5,300.0 146.5,301.0 146.5,302.0 146.5,303.0 146.5,304.0 146.0,304.5 145.5,305.0 145.5,306.0 145.5,307.0 145.5,308.0 145.5,309.0 145.0,309.5 144.5,310.0 144.5,311.0 144.5,312.0 144.5,313.0 144.5,314.0 144.0,314.5 143.5,315.0 143.5,316.0 143.5,317.0 143.5,318.0 143.0,318.5 142.5,319.0 142.5,320.0 142.5,321.0 142.5,322.0 142.5,323.0 142.0,323.5 141.5,324.0 141.5,325.0 141.5,326.0 141.5,327.0 141.5,328.0 141.0,328.5 140.5,329.0 140.5,330.0 140.5,331.0 140.0,331.5 139.5,332.0 139.5,333.0 139.5,334.0 139.5,335.0 139.5,336.0 139.5,337.0 139.0,337.5 138.5,338.0 138.5,339.0 138.5,340.0 138.5,341.0 138.0,341.5 137.5,342.0 137.5,343.0 137.5,344.0 137.5,345.0 137.0,345.5 136.5,346.0 136.5,347.0 136.5,348.0 136.0,348.5 135.5,349.0 135.5,350.0 135.5,351.0 135.5,352.0 135.0,352.5 134.5,353.0 134.5,354.0 134.5,355.0 134.5,356.0 134.5,357.0 134.0,357.5 133.5,358.0 133.5,359.0 133.5,360.0 133.5,361.0 133.0,361.5 132.5,362.0 132.5,363.0 132.5,364.0 132.5,365.0 132.5,366.0 132.5,367.0 132.0,367.5 131.5,368.0 131.5,369.0 131.5,370.0 131.5,371.0 131.5,372.0 131.5,373.0 131.0,373.5 130.5,374.0 130.5,375.0 130.5,376.0 130.5,377.0 130.5,378.0 130.5,379.0 130.5,380.0 130.5,381.0 130.5,382.0 130.5,383.0 130.5,384.0 130.5,385.0 130.5,386.0 130.5,387.0 130.5,388.0 130.5,389.0 130.5,390.0 130.5,391.0 130.5,392.0 130.5,393.0 130.5,394.0 130.5,395.0 131.0,395.5 131.5,396.0 131.5,397.0 131.5,398.0 131.5,399.0 131.5,400.0 131.5,401.0 131.5,402.0 131.5,403.0 131.5,404.0 132.0,404.5 132.5,405.0 132.5,406.0 132.5,407.0 132.5,408.0 132.5,409.0 132.5,410.0 132.5,411.0 132.5,412.0 132.5,413.0 132.5,414.0 132.5,415.0 132.5,416.0 132.5,417.0 132.5,418.0 132.5,419.0 132.5,420.0 132.5,421.0 132.5,422.0 132.5,423.0 132.5,424.0 132.5,425.0 132.5,426.0 132.5,427.0 132.5,428.0 132.0,428.5 131.5,429.0 131.5,430.0 131.5,431.0 131.5,432.0 131.5,433.0 131.5,434.0 131.5,435.0 131.5,436.0 131.0,436.5 130.5,437.0 130.5,438.0 130.5,439.0 130.5,440.0 130.5,441.0 130.5,442.0 130.5,443.0 130.0,443.5 129.5,444.0 129.5,445.0 129.5,446.0 129.5,447.0 129.5,448.0 129.5,449.0 129.0,449.5 128.5,450.0 128.5,451.0 128.5,452.0 128.5,453.0 128.5,454.0 128.0,454.5 127.5,455.0 127.5,456.0 127.5,457.0 127.5,458.0 127.5,459.0 127.5,460.0 127.0,460.5 126.5,461.0 126.5,462.0 126.5,463.0 126.5,464.0 126.5,465.0 126.0,465.5 125.5,466.0 125.5,467.0 125.5,468.0 125.5,469.0 125.5,470.0 125.0,470.5 124.5,471.0 124.5,472.0 124.5,473.0 124.5,474.0 124.0,474.5 123.5,475.0 123.5,476.0 123.5,477.0 123.5,478.0 123.5,479.0 123.5,480.0 123.5,481.0 123.0,481.5 122.5,482.0 122.5,483.0 122.5,484.0 122.5,485.0 122.0,485.5 121.5,486.0 121.5,487.0 121.5,488.0 121.5,489.0 121.5,490.0 121.5,491.0 121.5,492.0 121.5,493.0 121.5,494.0 121.5,495.0 121.5,496.0 121.5,497.0 121.5,498.0 121.5,499.0 121.5,500.0 121.5,501.0 121.5,502.0 121.5,503.0 121.5,504.0 121.5,505.0 121.5,506.0 122.0,506.5 122.5,507.0 122.5,508.0 122.5,509.0 123.0,509.5 123.5,510.0 123.5,511.0 123.5,512.0 124.0,512.5 124.5,513.0 124.5,514.0 124.5,515.0 125.0,515.5 125.5,516.0 125.5,517.0 126.0,517.5 126.5,518.0 126.5,519.0 127.0,519.5 127.5,520.0 128.0,520.5 128.5,521.0 128.5,522.0 129.0,522.5 129.5,523.0 129.5,524.0 130.0,524.5 130.5,525.0 130.5,526.0 130.5,527.0 130.5,528.0 130.5,529.0 130.5,530.0 130.5,531.0 130.0,531.5 129.5,532.0 129.0,532.5 128.5,533.0 128.0,533.5 127.0,533.5 126.5,534.0 126.0,534.5 125.0,534.5 124.0,534.5 123.5,535.0 123.0,535.5 122.0,535.5 121.0,535.5 120.0,535.5 119.0,535.5 118.5,536.0 118.0,536.5 117.0,536.5 116.0,536.5 115.0,536.5 114.5,537.0 114.0,537.5 Z" fill="white"/>
</svg>
